<svg width="33" height="34" viewBox="0 0 33 34" fill="none" xmlns="http://www.w3.org/2000/svg">
<path d="M6.71812 29.6629L6.72687 29.6148C6.72687 29.6148 6.7225 29.6411 6.71812 29.6629Z" fill="#002652"/>
<path d="M12.6533 27.5942C13.082 27.5942 13.4275 27.2486 13.4275 26.82C13.4275 26.3914 13.082 26.0458 12.6533 26.0458C12.2247 26.0458 11.8792 26.3914 11.8792 26.82C11.8792 27.2486 12.2247 27.5942 12.6533 27.5942Z" fill="white"/>
<path d="M19.7126 26.0458C19.284 26.0458 18.9385 26.3914 18.9385 26.82C18.9385 27.2486 19.284 27.5942 19.7126 27.5942C20.1412 27.5942 20.4868 27.2486 20.4868 26.82C20.4868 26.3914 20.1412 26.0458 19.7126 26.0458Z" fill="white"/>
<path d="M6.70937 29.7154L6.7225 29.6586C6.7225 29.6586 6.71375 29.6936 6.70937 29.7154Z" fill="#002652"/>
<path d="M6.68313 29.8379L6.69188 29.7854C6.69188 29.7854 6.68313 29.8204 6.68313 29.8379Z" fill="#002652"/>
<path d="M6.62627 30.131L6.65252 29.9997C6.64377 30.0479 6.63502 30.096 6.62627 30.131Z" fill="#002652"/>
<path d="M25.6828 29.8379C25.6828 29.8379 25.6741 29.8029 25.6741 29.7854L25.6828 29.8379Z" fill="#002652"/>
<path d="M25.6566 29.7154C25.6566 29.7154 25.6478 29.6761 25.6435 29.6586L25.6566 29.7154Z" fill="#002652"/>
<path d="M25.7397 30.131C25.7309 30.096 25.7222 30.0479 25.7134 29.9997L25.7397 30.131Z" fill="#002652"/>
<path d="M25.6478 29.6629C25.6478 29.6629 25.6391 29.628 25.6391 29.6148L25.6478 29.6629Z" fill="#002652"/>
<path d="M6.19327 15.5138C6.0708 15.54 5.94834 15.575 5.83899 15.645C5.49784 15.8637 5.57657 16.371 5.60718 16.7166C5.65967 17.377 5.80838 18.0375 5.97895 18.6804C6.10142 19.1309 6.24575 19.5727 6.4382 19.9969C6.65252 19.6645 6.8887 19.3627 7.13363 19.0828C7.33482 18.8554 7.54039 18.6454 7.75033 18.453C8.88314 17.4076 10.0072 16.8872 10.0072 16.8872C8.9225 16.1042 7.59725 15.2076 6.19327 15.5094V15.5138Z" fill="#002652"/>
<path d="M26.1727 15.5138C26.2951 15.54 26.4176 15.575 26.527 15.645C26.8681 15.8637 26.7894 16.371 26.7588 16.7166C26.7063 17.377 26.5576 18.0375 26.387 18.6804C26.2645 19.1309 26.1202 19.5727 25.9277 19.9969C25.7134 19.6645 25.4773 19.3627 25.2323 19.0828C25.0311 18.8554 24.8256 18.6454 24.6156 18.453C23.4828 17.4076 22.3587 16.8872 22.3587 16.8872C23.4434 16.1042 24.7687 15.2076 26.1727 15.5094V15.5138Z" fill="#002652"/>
<path d="M30.2622 2.10379C28.1628 0 24.7774 0 18.0112 0H14.3547C7.5885 0 4.2032 0 2.10379 2.10379C0 4.2032 0 7.5885 0 14.3547V16.7384C0 23.5047 0 26.89 2.10379 28.9894C2.46681 29.3524 2.88232 29.6673 3.33282 29.9166C3.81831 30.1878 4.34753 30.389 4.88114 30.5377C5.15668 30.6164 5.4366 30.6777 5.7209 30.7302C5.76901 30.7389 6.21514 30.8176 6.41196 30.8526L6.50381 30.8701C6.50381 30.8701 6.50381 30.8657 6.50381 30.8614C6.50381 30.8395 6.51255 30.7958 6.51255 30.787C6.51255 30.7739 6.51255 30.7651 6.51693 30.752C6.52568 30.682 6.5388 30.6121 6.54317 30.5858C6.55629 30.5115 6.56941 30.4371 6.58253 30.3628C6.58253 30.3409 6.59128 30.319 6.59566 30.2972L6.58253 30.2884C4.2032 28.3464 3.10976 24.9743 3.10976 24.9743C4.0195 24.9393 5.00797 24.4932 5.00797 24.4932C5.57219 24.2963 6.24138 23.8764 6.35947 23.2423C6.42508 22.8923 6.27637 22.5731 6.11017 22.2713C5.58531 21.3353 5.22229 20.3118 4.94237 19.2796C4.66245 18.243 4.43064 17.1714 4.34316 16.1086C4.29505 15.5488 4.16821 14.7309 4.71931 14.3766C4.88988 14.2673 5.09108 14.2104 5.2879 14.1667C7.54914 13.6812 9.68792 15.1289 11.4418 16.3885C11.4637 16.3798 11.4812 16.371 11.503 16.3623C11.6255 16.3011 11.7523 16.2486 11.8792 16.2005C12.0891 16.1261 12.3034 16.0693 12.5178 16.0211C13.5237 15.7587 14.7746 15.6056 16.1261 15.6056C16.1436 15.6056 16.1655 15.6056 16.183 15.6056C16.2005 15.6056 16.218 15.6056 16.2398 15.6056C17.5913 15.6056 18.8379 15.7587 19.8482 16.0211C20.0625 16.0693 20.2768 16.1261 20.4868 16.2005C20.6136 16.2442 20.7405 16.3011 20.8629 16.3623C20.8848 16.371 20.9023 16.3798 20.9242 16.3885C22.678 15.1289 24.8168 13.6768 27.0781 14.1667C27.2749 14.2104 27.4761 14.2673 27.6466 14.3766C28.1977 14.7353 28.0709 15.5532 28.0228 16.1086C27.9353 17.1714 27.6991 18.243 27.4236 19.2796C27.148 20.3162 26.7806 21.3353 26.2558 22.2713C26.0896 22.5687 25.9452 22.888 26.0065 23.2423C26.1202 23.8808 26.7894 24.2963 27.358 24.4932C27.358 24.4932 28.3465 24.9393 29.2562 24.9743C29.2562 24.9743 28.1628 28.3464 25.7834 30.2884L25.7703 30.2972C25.7703 30.2972 25.779 30.3409 25.7834 30.3628C25.7965 30.4371 25.8097 30.5115 25.8228 30.5858C25.8228 30.6121 25.8359 30.682 25.849 30.752C25.849 30.7651 25.849 30.7739 25.8534 30.787C25.8534 30.787 25.8621 30.8395 25.8621 30.8614V30.8701L25.954 30.8526C26.1464 30.8176 26.5969 30.7389 26.6451 30.7302C26.925 30.6777 27.2049 30.6121 27.4848 30.5377C28.0228 30.389 28.5476 30.1878 29.0331 29.9166C29.4836 29.6673 29.8991 29.3524 30.2622 28.9894C32.366 26.8856 32.366 23.5047 32.366 16.7384V14.3547C32.366 7.5885 32.366 4.2032 30.2622 2.10379Z" fill="#0075FF"/>
<path d="M12.0148 31.5218C12.0191 31.4912 12.0279 31.4693 12.0323 31.4431L12.1372 30.9707C12.181 30.787 12.2335 30.6033 12.2859 30.4196C12.4215 29.9647 12.5921 29.5011 12.9158 29.16C13.2832 28.7707 13.8036 28.5783 14.2935 28.3639C14.7834 28.1496 15.2907 27.8828 15.5532 27.4192C15.8112 26.9643 15.785 26.3826 15.5706 25.9103C15.4307 25.6041 15.2207 25.3373 14.9714 25.1099C14.8359 24.983 14.6828 24.8693 14.5297 24.7643C13.2875 23.9289 11.608 23.7846 10.239 24.3926C9.06247 24.9174 8.15709 25.9409 7.57538 27.0912C7.37419 27.4848 7.21236 27.896 7.0724 28.3158C6.93244 28.7357 6.82309 29.1643 6.72687 29.5973C6.72687 29.5973 6.72687 29.6061 6.72687 29.6192L6.71812 29.6673L6.705 29.7242C6.705 29.7242 6.69625 29.7679 6.69188 29.7898L6.68313 29.8423V29.851C6.67438 29.9035 6.66126 29.956 6.65252 30.0041L6.62627 30.1353C6.62627 30.1353 6.6219 30.1659 6.61753 30.1791C6.61753 30.1878 6.61753 30.1922 6.61753 30.1966V30.2097C6.61753 30.2228 6.61315 30.2315 6.60878 30.2447C6.60878 30.2578 6.6044 30.2753 6.60003 30.2884C6.60003 30.3103 6.59128 30.3321 6.58691 30.354C6.57379 30.4284 6.56067 30.5027 6.54754 30.5771C6.54754 30.6033 6.53442 30.6733 6.5213 30.7433C6.5213 30.7564 6.5213 30.7652 6.51693 30.7783C6.51693 30.7783 6.50818 30.8308 6.50818 30.8526V30.8614C6.55192 30.8701 6.60003 30.8745 6.64377 30.8789C6.68751 30.8832 6.73124 30.8876 6.77498 30.892C6.83184 30.9007 6.8887 30.9051 6.94993 30.9139C7.01991 30.9226 7.08989 30.9314 7.15987 30.9401C7.24298 30.9488 7.3217 30.962 7.4048 30.9707C7.49665 30.9838 7.5885 30.9926 7.68035 31.0057C7.78095 31.0188 7.88155 31.0319 7.98214 31.0451C8.09149 31.0582 8.20083 31.0713 8.31018 31.0888C8.42389 31.1019 8.54199 31.1194 8.65571 31.1325C8.77817 31.15 8.89626 31.1632 9.01873 31.1807C9.14119 31.1982 9.26803 31.2156 9.3905 31.2331C9.51734 31.2506 9.64418 31.2681 9.77102 31.29C9.89786 31.3075 10.0291 31.3294 10.1559 31.3469C10.2827 31.3644 10.414 31.3862 10.5408 31.4081C10.6676 31.43 10.7945 31.4475 10.9213 31.4693C11.0482 31.4912 11.1706 31.5131 11.2931 31.5306C11.4156 31.5524 11.5336 31.5743 11.6561 31.5962C11.7305 31.6093 11.8092 31.6224 11.8836 31.6399L11.9841 31.653L12.0148 31.5131V31.5218ZM11.8836 26.82C11.8836 26.3914 12.2291 26.0458 12.6577 26.0458C13.0863 26.0458 13.4319 26.3914 13.4319 26.82C13.4319 27.2486 13.0863 27.5942 12.6577 27.5942C12.2291 27.5942 11.8836 27.2486 11.8836 26.82Z" fill="#002652"/>
<path d="M25.8534 30.787C25.8534 30.7739 25.8534 30.7652 25.849 30.752C25.8403 30.6821 25.8272 30.6121 25.8228 30.5858C25.8097 30.5115 25.7965 30.4371 25.7834 30.3628C25.7834 30.3409 25.7747 30.319 25.7703 30.2972C25.7703 30.284 25.7659 30.2665 25.7615 30.2534C25.7615 30.2403 25.7572 30.2316 25.7528 30.2184V30.2053C25.7528 30.2053 25.7484 30.1966 25.7484 30.1878C25.7484 30.1747 25.7441 30.1616 25.7397 30.1441L25.7134 30.0129C25.7047 29.9648 25.6916 29.9123 25.6828 29.8598V29.851L25.6741 29.7986C25.6697 29.7767 25.6653 29.7548 25.661 29.7329L25.6478 29.6761L25.6391 29.628V29.6061C25.5429 29.1731 25.4335 28.7445 25.2936 28.3246C25.1536 27.9047 24.9918 27.4936 24.7906 27.0999C24.2089 25.9496 23.3035 24.9262 22.1269 24.4013C20.7579 23.7934 19.0828 23.9377 17.8363 24.7731C17.6832 24.8781 17.5301 24.9918 17.3945 25.1186C17.1452 25.346 16.9353 25.6128 16.7953 25.919C16.5766 26.3958 16.5547 26.9731 16.8128 27.428C17.0752 27.8916 17.5826 28.1628 18.0724 28.3727C18.5623 28.587 19.0828 28.7795 19.4502 29.1687C19.7782 29.5143 19.9444 29.9735 20.08 30.4284C20.1325 30.6121 20.185 30.7958 20.2287 30.9795L20.3337 31.4518C20.3381 31.4781 20.3468 31.5 20.3512 31.5262L20.3818 31.6705L20.4824 31.6574C20.5568 31.6443 20.6355 31.6268 20.7098 31.6137C20.8323 31.5918 20.9504 31.5699 21.0729 31.5481C21.1953 31.5262 21.3222 31.5043 21.4446 31.4868C21.5715 31.465 21.6983 31.4475 21.8251 31.4256C21.952 31.4037 22.0832 31.3862 22.21 31.3644C22.3369 31.3469 22.4681 31.325 22.5949 31.3075C22.7218 31.29 22.8486 31.2725 22.9755 31.2506C23.0979 31.2332 23.2248 31.2157 23.3472 31.1982C23.4697 31.1807 23.5878 31.1632 23.7102 31.1501C23.824 31.1326 23.9421 31.1194 24.0558 31.1063C24.1651 31.0932 24.2745 31.0801 24.3838 31.0626C24.4844 31.0495 24.585 31.0363 24.6856 31.0232C24.7774 31.0101 24.8693 31.0013 24.9611 30.9882C25.0442 30.9795 25.123 30.9664 25.2061 30.9576C25.2761 30.9489 25.346 30.9401 25.416 30.9314C25.4729 30.9226 25.5297 30.9182 25.591 30.9095C25.6347 30.9051 25.6784 30.9007 25.7222 30.8964C25.7659 30.892 25.814 30.8876 25.8578 30.8789C25.8578 30.8789 25.8578 30.8745 25.8578 30.8701C25.8578 30.8483 25.849 30.8045 25.849 30.7958L25.8534 30.787ZM19.7126 27.5898C19.284 27.5898 18.9385 27.2443 18.9385 26.8156C18.9385 26.387 19.284 26.0415 19.7126 26.0415C20.1412 26.0415 20.4868 26.387 20.4868 26.8156C20.4868 27.2443 20.1412 27.5898 19.7126 27.5898Z" fill="#002652"/>
<path d="M18.1774 32.1167C18.1468 32.0642 18.1162 32.0161 18.0812 31.9636C18.0462 31.9155 18.0112 31.8717 17.9762 31.828C17.9412 31.7842 17.9062 31.7449 17.8669 31.7055C17.8319 31.6705 17.7925 31.6312 17.7532 31.6006C17.7138 31.5656 17.6744 31.5349 17.6351 31.5087C17.5957 31.4781 17.5563 31.4518 17.5126 31.4256C17.4732 31.3994 17.4295 31.3775 17.3901 31.3556C17.3508 31.3338 17.307 31.3163 17.2677 31.2944C17.2283 31.2769 17.1889 31.2594 17.1452 31.2463C17.1058 31.2332 17.0665 31.2157 17.0271 31.2069C16.9878 31.1938 16.9484 31.185 16.9134 31.1719C16.8784 31.1632 16.839 31.1544 16.8041 31.1457C16.7691 31.1369 16.7341 31.1326 16.6991 31.1238C16.6685 31.1194 16.6335 31.1151 16.6029 31.1107C16.5722 31.1107 16.546 31.1019 16.5154 31.1019C16.4192 31.0932 16.3229 31.0888 16.2267 31.0888H16.1567C16.0605 31.0888 15.9643 31.0888 15.8681 31.1019C15.8374 31.1019 15.8068 31.1063 15.7806 31.1107C15.75 31.1107 15.715 31.1194 15.6844 31.1238C15.6494 31.1282 15.6144 31.1369 15.5794 31.1457C15.5444 31.1544 15.505 31.1632 15.47 31.1719C15.4307 31.1807 15.3913 31.1938 15.3563 31.2069C15.317 31.22 15.2776 31.2332 15.2382 31.2463C15.1989 31.2638 15.1551 31.2769 15.1158 31.2944C15.072 31.3119 15.0327 31.3338 14.9933 31.3556C14.9496 31.3775 14.9102 31.3994 14.8708 31.4256C14.8315 31.4518 14.7877 31.4781 14.7484 31.5087C14.709 31.5393 14.6696 31.5699 14.6303 31.6006C14.5909 31.6355 14.5516 31.6705 14.5166 31.7055C14.4772 31.7449 14.4422 31.7842 14.4072 31.828C14.3722 31.8717 14.3372 31.9155 14.3023 31.9636C14.2673 32.0117 14.2366 32.0642 14.206 32.1167C14.1754 32.1691 14.1448 32.226 14.1186 32.2829C14.1186 32.2829 14.1186 32.2916 14.1229 32.2916C14.206 32.4359 14.311 32.5715 14.4247 32.694C14.639 32.9346 14.8883 33.1489 15.1726 33.302C15.4875 33.4725 15.8418 33.5556 16.2005 33.56C16.5591 33.5556 16.9134 33.4725 17.2283 33.302C17.5126 33.1489 17.7619 32.9346 17.9762 32.694C18.0856 32.5672 18.1905 32.4359 18.278 32.2916L18.2824 32.2829C18.2561 32.226 18.2255 32.1691 18.1949 32.1167H18.1774Z" fill="#002652"/>
<path d="M27.358 24.4844C26.7938 24.2876 26.1246 23.8677 26.0065 23.2335C25.9409 22.8836 26.0896 22.5643 26.2558 22.2625C26.7806 21.3265 27.1437 20.3031 27.4236 19.2709C27.7035 18.2343 27.9353 17.1627 28.0228 16.0999C28.0709 15.54 28.1977 14.7221 27.6466 14.3679C27.4761 14.2585 27.2749 14.2017 27.0781 14.1579C24.8168 13.6724 22.678 15.1202 20.9241 16.3798C20.9023 16.3711 20.8848 16.3623 20.8629 16.3536C20.7405 16.2923 20.6136 16.2398 20.4868 16.1917C20.2768 16.1174 20.0625 16.0605 19.8482 16.0124C18.8422 15.75 17.5913 15.5969 16.2398 15.5969C16.2398 15.5969 16.2398 15.5969 16.2355 15.5969C16.2355 15.5969 16.2005 15.5969 16.183 15.5969C16.1655 15.5969 16.148 15.5969 16.1305 15.5969C16.1305 15.5969 16.1305 15.5969 16.1261 15.5969C14.7746 15.5969 13.5281 15.75 12.5178 16.0124C12.3034 16.0605 12.0891 16.1174 11.8792 16.1917C11.7523 16.2355 11.6255 16.2923 11.503 16.3536C11.4812 16.3623 11.4637 16.3711 11.4418 16.3798C9.68792 15.1202 7.54914 13.6681 5.2879 14.1579C5.09108 14.2017 4.88988 14.2585 4.71931 14.3679C4.16821 14.7265 4.29505 15.5444 4.34316 16.0999C4.43064 17.1627 4.66682 18.2343 4.94237 19.2709C5.21792 20.3075 5.58531 21.3265 6.11017 22.2625C6.27637 22.5599 6.42071 22.8792 6.35947 23.2335C6.24575 23.8721 5.57657 24.2876 5.00797 24.4844C5.00797 24.4844 4.0195 24.9305 3.10976 24.9655C3.10976 24.9655 4.2032 28.3377 6.58253 30.2797L6.59566 30.2884C6.59566 30.2884 6.60003 30.2578 6.6044 30.2447C6.6044 30.2316 6.60878 30.2228 6.61315 30.2097C6.61315 30.2097 6.61315 30.2009 6.61315 30.1922C6.61315 30.1878 6.61315 30.1834 6.61315 30.1747L6.6219 30.131C6.62627 30.1047 6.63502 30.0741 6.63939 30.0391C6.63939 30.026 6.64377 30.0129 6.64814 29.9997L6.67876 29.8467V29.8379C6.67876 29.8204 6.68751 29.8029 6.68751 29.7854L6.70063 29.7198C6.70063 29.7198 6.70937 29.6805 6.71375 29.663C6.71375 29.6411 6.7225 29.628 6.7225 29.6148V29.593C6.81872 29.16 6.93244 28.7313 7.0724 28.3115C7.21236 27.8916 7.37419 27.4804 7.57538 27.0868C8.15709 25.9365 9.06247 24.913 10.239 24.3882C11.608 23.7802 13.2832 23.9246 14.5297 24.76C14.6828 24.8649 14.8359 24.9786 14.9714 25.1055C15.2207 25.3329 15.4307 25.5997 15.5706 25.9059C15.7893 26.3826 15.8112 26.96 15.5532 27.4148C15.2907 27.8785 14.7834 28.1496 14.2935 28.3596C13.8036 28.5739 13.2832 28.7663 12.9158 29.1556C12.5877 29.5011 12.4215 29.9604 12.2859 30.4152C12.2335 30.5989 12.181 30.7826 12.1372 30.9663L12.0323 31.4387C12.0279 31.465 12.0191 31.4868 12.0148 31.5131L11.9841 31.6574L14.1011 32.2785C14.1273 32.2216 14.1579 32.1648 14.1885 32.1123C14.2191 32.0598 14.2498 32.0117 14.2848 31.9592C14.3197 31.9111 14.3547 31.8673 14.3897 31.8236C14.4247 31.7799 14.4597 31.7405 14.4991 31.7011C14.5341 31.6662 14.5734 31.6268 14.6128 31.5962C14.6522 31.5612 14.6915 31.5306 14.7309 31.5043C14.7702 31.4737 14.8096 31.4475 14.8533 31.4212C14.8927 31.395 14.9365 31.3731 14.9758 31.3512C15.0152 31.3294 15.0589 31.3119 15.0983 31.29C15.1376 31.2725 15.177 31.255 15.2207 31.2419C15.2601 31.2288 15.2995 31.2113 15.3388 31.2025C15.3782 31.1894 15.4176 31.1807 15.4526 31.1675C15.4875 31.1588 15.5269 31.15 15.5619 31.1413C15.5969 31.1325 15.6319 31.1282 15.6669 31.1194C15.6975 31.1151 15.7325 31.1107 15.7631 31.1063C15.7937 31.1063 15.82 31.0976 15.8506 31.0976C15.9468 31.0888 16.043 31.0844 16.1392 31.0844H16.2092C16.3054 31.0844 16.4017 31.0844 16.4979 31.0976C16.5285 31.0976 16.5591 31.1019 16.5854 31.1063C16.616 31.1063 16.651 31.1151 16.6816 31.1194C16.7166 31.1238 16.7516 31.1325 16.7866 31.1413C16.8215 31.15 16.8609 31.1588 16.8959 31.1675C16.9353 31.1763 16.9746 31.1894 17.0096 31.2025C17.049 31.2156 17.0883 31.2288 17.1277 31.2419C17.1671 31.2594 17.2108 31.2725 17.2502 31.29C17.2939 31.3075 17.3333 31.3294 17.3726 31.3512C17.4164 31.3731 17.4557 31.395 17.4951 31.4212C17.5345 31.4475 17.5782 31.4737 17.6176 31.5043C17.6569 31.5349 17.6963 31.5656 17.7357 31.5962C17.775 31.6312 17.8144 31.6662 17.8494 31.7011C17.8887 31.7405 17.9237 31.7799 17.9587 31.8236C17.9937 31.8673 18.0287 31.9111 18.0637 31.9592C18.0987 32.0073 18.1293 32.0598 18.1599 32.1123C18.1905 32.1648 18.2212 32.2216 18.2474 32.2785L20.3643 31.6574L20.3337 31.5174C20.3293 31.4868 20.3206 31.465 20.3162 31.4387L20.2112 30.9663C20.1675 30.7826 20.115 30.5989 20.0625 30.4152C19.9269 29.9604 19.7564 29.4968 19.4327 29.1556C19.0653 28.7663 18.5448 28.5739 18.055 28.3596C17.5651 28.1453 17.0577 27.8785 16.7953 27.4148C16.5373 26.96 16.5635 26.3783 16.7778 25.9059C16.9178 25.5997 17.1277 25.3329 17.377 25.1055C17.5126 24.9786 17.6657 24.8649 17.8188 24.76C19.0609 23.9246 20.7405 23.7802 22.1094 24.3882C23.286 24.913 24.1914 25.9365 24.7731 27.0868C24.9743 27.4804 25.1361 27.8916 25.2761 28.3115C25.416 28.7313 25.5254 29.16 25.6216 29.593V29.6148C25.6216 29.6148 25.6303 29.6411 25.6347 29.663C25.6347 29.6805 25.6435 29.6979 25.6478 29.7198L25.661 29.7854C25.661 29.7854 25.6697 29.8204 25.6697 29.8379V29.8467L25.7003 29.9997C25.7091 30.0478 25.7178 30.096 25.7266 30.131L25.7353 30.1747C25.7353 30.1747 25.7353 30.1878 25.7353 30.1922C25.7353 30.1966 25.7353 30.2009 25.7353 30.2053C25.7353 30.2184 25.7397 30.2272 25.7441 30.2403C25.7441 30.2534 25.7484 30.2709 25.7528 30.284L25.7659 30.2753C28.1453 28.3333 29.2387 24.9611 29.2387 24.9611C28.329 24.9262 27.3405 24.48 27.3405 24.48L27.358 24.4844ZM7.75033 18.4573C7.54477 18.6498 7.33482 18.8597 7.13363 19.0872C6.8887 19.3671 6.65252 19.6689 6.4382 20.0013C6.25013 19.577 6.10142 19.1309 5.97895 18.6848C5.80838 18.0418 5.65967 17.377 5.60718 16.721C5.57657 16.3754 5.49784 15.8681 5.83899 15.6494C5.94396 15.5794 6.06643 15.5444 6.19327 15.5182C7.59288 15.2164 8.91813 16.113 10.0072 16.8959C10.0072 16.8959 8.88314 17.4164 7.75033 18.4617V18.4573ZM25.2367 19.0872C25.0355 18.8597 24.8299 18.6498 24.62 18.4573C23.4872 17.412 22.3631 16.8915 22.3631 16.8915C23.4478 16.1086 24.7731 15.212 26.1771 15.5138C26.2995 15.54 26.422 15.575 26.5313 15.645C26.8725 15.8637 26.7938 16.3711 26.7631 16.7166C26.7107 17.377 26.5619 18.0375 26.3914 18.6804C26.2689 19.1309 26.1246 19.5727 25.9321 19.9969C25.7178 19.6645 25.4816 19.3627 25.2367 19.0828V19.0872Z" fill="white"/>
</svg>
